<svg xmlns="http://www.w3.org/2000/svg" width="56" height="56" fill="none" viewBox="0 0 56 56"><g filter="url(#filter0_i)"><path fill="#8CBBFF" d="M30 21C30 22.1046 29.1046 23 28 23C26.8954 23 26 22.1046 26 21C26 19.8954 26.8954 19 28 19C29.1046 19 30 19.8954 30 21Z"/><path fill="url(#paint0_linear)" d="M30 21C30 22.1046 29.1046 23 28 23C26.8954 23 26 22.1046 26 21C26 19.8954 26.8954 19 28 19C29.1046 19 30 19.8954 30 21Z"/><path fill="#8CBBFF" d="M28 25C26.8954 25 26 25.8954 26 27V35C26 36.1046 26.8954 37 28 37C29.1046 37 30 36.1046 30 35V27C30 25.8954 29.1046 25 28 25Z"/><path fill="url(#paint1_linear)" d="M28 25C26.8954 25 26 25.8954 26 27V35C26 36.1046 26.8954 37 28 37C29.1046 37 30 36.1046 30 35V27C30 25.8954 29.1046 25 28 25Z"/><path fill="#8CBBFF" fill-rule="evenodd" d="M28 50C40.1503 50 50 40.1503 50 28C50 15.8497 40.1503 6 28 6C15.8497 6 6 15.8497 6 28C6 40.1503 15.8497 50 28 50ZM28 46C37.9411 46 46 37.9411 46 28C46 18.0589 37.9411 10 28 10C18.0589 10 10 18.0589 10 28C10 37.9411 18.0589 46 28 46Z" clip-rule="evenodd"/><path fill="url(#paint2_linear)" fill-rule="evenodd" d="M28 50C40.1503 50 50 40.1503 50 28C50 15.8497 40.1503 6 28 6C15.8497 6 6 15.8497 6 28C6 40.1503 15.8497 50 28 50ZM28 46C37.9411 46 46 37.9411 46 28C46 18.0589 37.9411 10 28 10C18.0589 10 10 18.0589 10 28C10 37.9411 18.0589 46 28 46Z" clip-rule="evenodd"/></g><defs><filter id="filter0_i" width="44" height="44" x="6" y="6" color-interpolation-filters="sRGB" filterUnits="userSpaceOnUse"><feFlood flood-opacity="0" result="BackgroundImageFix"/><feBlend in="SourceGraphic" in2="BackgroundImageFix" mode="normal" result="shape"/><feColorMatrix in="SourceAlpha" result="hardAlpha" type="matrix" values="0 0 0 0 0 0 0 0 0 0 0 0 0 0 0 0 0 0 127 0"/><feOffset/><feGaussianBlur stdDeviation="1"/><feComposite in2="hardAlpha" k2="-1" k3="1" operator="arithmetic"/><feColorMatrix type="matrix" values="0 0 0 0 0 0 0 0 0 0 0 0 0 0 0 0 0 0 0.4 0"/><feBlend in2="shape" mode="normal" result="effect1_innerShadow"/></filter><linearGradient id="paint0_linear" x1="28" x2="28" y1="6" y2="50" gradientUnits="userSpaceOnUse"><stop stop-color="#8CBBFF"/><stop offset="1" stop-color="#579BFE"/></linearGradient><linearGradient id="paint1_linear" x1="28" x2="28" y1="6" y2="50" gradientUnits="userSpaceOnUse"><stop stop-color="#8CBBFF"/><stop offset="1" stop-color="#579BFE"/></linearGradient><linearGradient id="paint2_linear" x1="28" x2="28" y1="6" y2="50" gradientUnits="userSpaceOnUse"><stop stop-color="#8CBBFF"/><stop offset="1" stop-color="#579BFE"/></linearGradient></defs></svg>